<svg width="16" height="16" viewBox="0 0 16 16" fill="none" xmlns="http://www.w3.org/2000/svg">
<path d="M7.99902 0.983002C11.8743 0.983002 15.0164 4.12436 15.0166 7.9996C15.0166 11.875 11.8745 15.0172 7.99902 15.0172C4.12378 15.017 0.982422 11.8749 0.982422 7.9996C0.982637 4.12449 4.12391 0.983217 7.99902 0.983002ZM7.39746 3.7457C6.22031 4.00412 5.32812 4.84296 5.32812 6.03281C5.32828 7.45952 6.38408 8.11186 7.30664 8.55917C7.78945 8.79326 8.2173 8.96501 8.54688 9.17148C8.87238 9.37549 9.00383 9.55551 9.00391 9.76132C9.00391 9.97633 8.91791 10.1357 8.77734 10.2467C8.6308 10.3622 8.40874 10.4361 8.13184 10.4361C7.63902 10.4361 7.24816 10.1995 6.9707 9.94589C6.83299 9.82002 6.72709 9.69393 6.65625 9.59921C6.62099 9.55205 6.59418 9.51316 6.57715 9.48691C6.56864 9.4738 6.56239 9.46384 6.55859 9.45761L6.55469 9.45078L6.40625 9.19199L6.17773 9.38339L5.17773 10.2193L5.02148 10.3502L5.11719 10.5289V10.5299H5.11816V10.5318C5.11877 10.5329 5.12015 10.534 5.12109 10.5357C5.12305 10.5393 5.12552 10.5444 5.12891 10.5504C5.13568 10.5623 5.14561 10.5787 5.1582 10.5992C5.18341 10.6404 5.22022 10.6983 5.26953 10.7672C5.36801 10.9047 5.51699 11.0884 5.71875 11.2799C6.08818 11.6305 6.64168 12.0057 7.39746 12.1588V13.2135H8.87695V12.1461C10.1324 11.8712 10.9561 10.8788 10.9561 9.71738C10.956 8.98824 10.6996 8.45106 10.3125 8.04355C9.93365 7.64487 9.43806 7.37879 8.97266 7.16562C8.48732 6.94333 8.06283 6.78827 7.7334 6.5914C7.41147 6.399 7.28139 6.22356 7.28125 6.01035C7.28125 5.87678 7.34777 5.74904 7.49707 5.64609C7.6499 5.54077 7.88374 5.46835 8.1748 5.46835C8.39816 5.46841 8.59695 5.52129 8.73145 5.60019C8.86701 5.67979 8.90423 5.76159 8.9043 5.82285V6.42538H10.7021V5.44882C10.7021 4.87299 10.3952 4.45706 9.99414 4.18124C9.66292 3.95353 9.25907 3.81338 8.87598 3.73984V2.68027H7.39746V3.7457Z" fill="#151515" stroke="#151515" stroke-width="0.5"/>
</svg>
