<svg width="16" height="10" viewBox="0 0 16 10" fill="none" xmlns="http://www.w3.org/2000/svg">
<path d="M4.5 0.515625H11.5C12.6893 0.515625 13.8299 0.988118 14.6709 1.8291C15.5119 2.67008 15.9844 3.81067 15.9844 5C15.9844 6.18933 15.5119 7.32992 14.6709 8.1709C13.8299 9.01188 12.6893 9.48437 11.5 9.48438H4.5C3.31067 9.48438 2.17008 9.01188 1.3291 8.1709C0.488118 7.32992 0.015625 6.18933 0.015625 5C0.015625 3.81067 0.488118 2.67008 1.3291 1.8291C2.17008 0.988118 3.31067 0.515625 4.5 0.515625ZM12.5342 2.50293C12.0403 2.29838 11.497 2.24435 10.9727 2.34863C10.4483 2.45293 9.96691 2.71083 9.58887 3.08887C9.21083 3.46691 8.95293 3.9483 8.84863 4.47266C8.74435 4.99696 8.79838 5.54029 9.00293 6.03418C9.20752 6.52811 9.55352 6.95102 9.99805 7.24805C10.4426 7.54503 10.9654 7.70313 11.5 7.70312C11.8551 7.70362 12.207 7.63371 12.5352 7.49805C12.8632 7.36238 13.1611 7.16316 13.4121 6.91211C13.6632 6.66106 13.8624 6.36325 13.998 6.03516C14.1337 5.70698 14.2036 5.35511 14.2031 5C14.2031 4.46541 14.045 3.94255 13.748 3.49805C13.451 3.05352 13.0281 2.70752 12.5342 2.50293Z" fill="#151515" stroke="#151515" stroke-width="0.03125"/>
</svg>
