<svg width="14" height="16" viewBox="0 0 14 16" fill="none" xmlns="http://www.w3.org/2000/svg">
<path d="M11.5 13.5C11.7652 13.5 12.0195 13.6054 12.207 13.793C12.3946 13.9805 12.5 14.2348 12.5 14.5C12.5 14.7652 12.3946 15.0195 12.207 15.207C12.0195 15.3946 11.7652 15.5 11.5 15.5C11.0812 15.5 10.7009 15.2332 10.5615 14.835L10.4443 14.5L10.5615 14.165C10.7009 13.7668 11.0812 13.5 11.5 13.5ZM13.5 2.51367C11.4077 2.61955 10.0789 3.39712 9.16797 4.56836C8.22717 5.77803 7.76196 7.38209 7.27539 8.8418C6.77408 10.3457 6.24131 11.7392 5.20898 12.7715C4.26478 13.7157 2.84946 14.405 0.5 14.4902V13.4854C2.59227 13.3795 3.92107 12.6029 4.83203 11.4316C5.77283 10.222 6.23804 8.61791 6.72461 7.1582C7.22592 5.65427 7.75869 4.26084 8.79102 3.22852C9.73523 2.2843 11.1505 1.59399 13.5 1.50879V2.51367ZM2.5 0.5C2.91884 0.5 3.2991 0.766819 3.43848 1.16504L3.55566 1.5L3.43848 1.83496C3.2991 2.23318 2.91884 2.5 2.5 2.5C2.23478 2.5 1.9805 2.39457 1.79297 2.20703C1.60543 2.0195 1.5 1.76522 1.5 1.5C1.5 1.23478 1.60543 0.980505 1.79297 0.792969C1.9805 0.605433 2.23478 0.5 2.5 0.5Z" fill="black" stroke="#151515"/>
</svg>
