<svg width="16" height="12" viewBox="0 0 16 12" fill="none" xmlns="http://www.w3.org/2000/svg">
<path d="M6.46973 2.67188H6.50781V3C6.50781 3.27168 6.72831 3.49218 7 3.49219H9C9.27169 3.49219 9.49219 3.27169 9.49219 3V2.70215L9.5 2.67188L9.50195 2.66406C12.0875 3.33267 14.0038 5.68301 14.0039 8.47461V8.5H13.9961V8.50781H13.5C13.2283 8.50781 13.0078 8.72831 13.0078 9V11C13.0078 11.2717 13.2283 11.4922 13.5 11.4922H15.5C15.7717 11.4922 15.9922 11.2717 15.9922 11V9C15.9922 8.72831 15.7717 8.50781 15.5 8.50781H14.9961V8.5H14.9883V8.47461C14.9882 5.94759 13.6375 3.73323 11.6221 2.50684L11.5977 2.49219H14.1523L14.1455 2.49609C14.3174 2.79134 14.634 2.99219 15 2.99219C15.5479 2.99219 15.9922 2.54794 15.9922 2C15.9922 1.45206 15.5479 1.00781 15 1.00781C14.6337 1.00781 14.3174 1.20866 14.1455 1.50391L14.1387 1.51562V1.50781H9.5V1.5H9.49219V1C9.49219 0.728315 9.27169 0.507812 9 0.507812H7C6.7283 0.507812 6.50781 0.728315 6.50781 1V1.5H6.5V1.50781H1.84766L1.85449 1.50391C1.68255 1.20866 1.36625 1.00781 1 1.00781C0.452065 1.00781 0.0078125 1.45206 0.0078125 2C0.0078125 2.54794 0.452065 2.99219 1 2.99219C1.36626 2.99219 1.68255 2.79134 1.85449 2.49609L1.86133 2.48438V2.49219H4.40137L4.37793 2.50684C2.36243 3.73346 1.01177 5.94752 1.01172 8.47461V8.5H1.00391V8.50781H0.5C0.228315 8.50781 0.0078125 8.72831 0.0078125 9V11C0.0078125 11.2717 0.228315 11.4922 0.5 11.4922H2.5C2.77169 11.4922 2.99219 11.2717 2.99219 11V9C2.99219 8.72831 2.77169 8.50781 2.5 8.50781H2.00391V8.5H1.99609V8.47461C1.99616 5.693 3.89855 3.35005 6.46973 2.67188ZM6.46973 2.67188C6.47919 2.66938 6.48857 2.66651 6.49805 2.66406L6.46875 2.67188H6.46973ZM1 9.5H0.992188V10.5H1V10.5078H2V10.5H2.00781V9.5H2V9.49219H1V9.5ZM14 9.5H13.9922V10.5H14V10.5078H15V10.5H15.0078V9.5H15V9.49219H14V9.5ZM7.5 1.5H7.49219V2.5H7.5V2.50781H8.5V2.5H8.50781V1.5H8.5V1.49219H7.5V1.5Z" fill="black" stroke="#151515" stroke-width="0.015625"/>
</svg>
