<svg width="18" height="14" viewBox="0 0 18 14" fill="none" xmlns="http://www.w3.org/2000/svg">
<path d="M3 10.5C3.15714 10.5 3.26559 10.5478 3.35938 10.6416C3.42969 10.7119 3.47371 10.7902 3.49121 10.8906L3.5 10.999V13C3.5 13.1571 3.45217 13.2656 3.3584 13.3594C3.28808 13.4297 3.20985 13.4737 3.10938 13.4912L3.00098 13.5H1C0.84307 13.5 0.73538 13.4523 0.642578 13.3594C0.572214 13.2888 0.526846 13.2096 0.508789 13.1084L0.5 12.999V11C0.5 10.8431 0.547657 10.7354 0.640625 10.6426C0.711234 10.5722 0.790376 10.5268 0.891602 10.5088L1.00098 10.5H3ZM17 10.5C17.1571 10.5 17.2656 10.5478 17.3594 10.6416C17.4297 10.7119 17.4737 10.7902 17.4912 10.8906L17.5 10.999V13C17.5 13.1571 17.4522 13.2656 17.3584 13.3594C17.2881 13.4297 17.2098 13.4737 17.1094 13.4912L17.001 13.5H6C5.84307 13.5 5.73538 13.4523 5.64258 13.3594C5.57221 13.2888 5.52685 13.2096 5.50879 13.1084L5.5 12.999V11C5.5 10.8431 5.54766 10.7354 5.64062 10.6426C5.71123 10.5722 5.79038 10.5268 5.8916 10.5088L6.00098 10.5H17ZM3 5.5C3.15714 5.5 3.26559 5.54783 3.35938 5.6416C3.42969 5.71192 3.47371 5.79015 3.49121 5.89062L3.5 5.99902V8C3.5 8.15714 3.45217 8.26559 3.3584 8.35938C3.28808 8.42969 3.20985 8.47371 3.10938 8.49121L3.00098 8.5H1C0.84307 8.5 0.73538 8.45234 0.642578 8.35938C0.572214 8.28877 0.526846 8.20962 0.508789 8.1084L0.5 7.99902V6C0.5 5.84307 0.547657 5.73538 0.640625 5.64258C0.711234 5.57221 0.790376 5.52685 0.891602 5.50879L1.00098 5.5H3ZM17 5.5C17.1571 5.5 17.2656 5.54783 17.3594 5.6416C17.4297 5.71192 17.4737 5.79015 17.4912 5.89062L17.5 5.99902V8C17.5 8.15714 17.4522 8.26559 17.3584 8.35938C17.2881 8.42969 17.2098 8.47371 17.1094 8.49121L17.001 8.5H6C5.84307 8.5 5.73538 8.45234 5.64258 8.35938C5.57221 8.28877 5.52685 8.20962 5.50879 8.1084L5.5 7.99902V6C5.5 5.84307 5.54766 5.73538 5.64062 5.64258C5.71123 5.57221 5.79038 5.52685 5.8916 5.50879L6.00098 5.5H17ZM3 0.5C3.15714 0.5 3.26559 0.547826 3.35938 0.641602C3.42969 0.711921 3.47371 0.790152 3.49121 0.890625L3.5 0.999023V3C3.5 3.15714 3.45217 3.26559 3.3584 3.35938C3.28808 3.42969 3.20985 3.47371 3.10938 3.49121L3.00098 3.5H1C0.84307 3.5 0.73538 3.45234 0.642578 3.35938C0.572214 3.28877 0.526846 3.20962 0.508789 3.1084L0.5 2.99902V1C0.5 0.84307 0.547657 0.73538 0.640625 0.642578C0.711234 0.572214 0.790376 0.526846 0.891602 0.508789L1.00098 0.5H3ZM17 0.5C17.1571 0.5 17.2656 0.547825 17.3594 0.641602C17.4297 0.711921 17.4737 0.790152 17.4912 0.890625L17.5 0.999023V3C17.5 3.15714 17.4522 3.26559 17.3584 3.35938C17.2881 3.42969 17.2098 3.47371 17.1094 3.49121L17.001 3.5H6C5.84307 3.5 5.73538 3.45234 5.64258 3.35938C5.57221 3.28877 5.52685 3.20962 5.50879 3.1084L5.5 2.99902V1C5.5 0.84307 5.54766 0.73538 5.64062 0.642578C5.71123 0.572214 5.79038 0.526846 5.8916 0.508789L6.00098 0.5H17Z" fill="#151515" stroke="#151515"/>
</svg>
